<mxfile host="app.diagrams.net" modified="2023-05-15T12:33:38.067Z" agent="Mozilla/5.0 (Windows NT 10.0; Win64; x64; rv:109.0) Gecko/20100101 Firefox/113.0" etag="tVdEs_EWnaeBTnKAD4kc" version="21.2.9" type="github">
  <diagram name="Page-1" id="G42NG0Uyzs2sBHPFU7Es">
    <mxGraphModel dx="954" dy="556" grid="1" gridSize="10" guides="1" tooltips="1" connect="1" arrows="1" fold="1" page="1" pageScale="1" pageWidth="1100" pageHeight="1700" math="0" shadow="0">
      <root>
        <mxCell id="0" />
        <mxCell id="1" parent="0" />
        <mxCell id="gIDXt0btsgcUDlHHGtB9-1" value="Actor" style="shape=umlActor;verticalLabelPosition=bottom;verticalAlign=top;html=1;outlineConnect=0;" parent="1" vertex="1">
          <mxGeometry x="90" y="40" width="30" height="60" as="geometry" />
        </mxCell>
        <mxCell id="gIDXt0btsgcUDlHHGtB9-2" value="Admin panel" style="html=1;whiteSpace=wrap;" parent="1" vertex="1">
          <mxGeometry x="300" y="45" width="110" height="50" as="geometry" />
        </mxCell>
        <mxCell id="gIDXt0btsgcUDlHHGtB9-3" value="Server" style="html=1;whiteSpace=wrap;" parent="1" vertex="1">
          <mxGeometry x="590" y="45" width="110" height="50" as="geometry" />
        </mxCell>
        <mxCell id="gIDXt0btsgcUDlHHGtB9-4" value="Database" style="html=1;whiteSpace=wrap;" parent="1" vertex="1">
          <mxGeometry x="880" y="45" width="110" height="50" as="geometry" />
        </mxCell>
        <mxCell id="gIDXt0btsgcUDlHHGtB9-5" value="" style="endArrow=none;dashed=1;endFill=0;endSize=12;html=1;rounded=0;" parent="1" edge="1">
          <mxGeometry width="160" relative="1" as="geometry">
            <mxPoint x="104.5" y="120" as="sourcePoint" />
            <mxPoint x="105" y="2600" as="targetPoint" />
          </mxGeometry>
        </mxCell>
        <mxCell id="gIDXt0btsgcUDlHHGtB9-6" value="" style="endArrow=none;dashed=1;endFill=0;endSize=12;html=1;rounded=0;" parent="1" source="gIDXt0btsgcUDlHHGtB9-102" edge="1">
          <mxGeometry width="160" relative="1" as="geometry">
            <mxPoint x="354.5" y="95" as="sourcePoint" />
            <mxPoint x="355" y="2600" as="targetPoint" />
          </mxGeometry>
        </mxCell>
        <mxCell id="gIDXt0btsgcUDlHHGtB9-7" value="" style="endArrow=none;dashed=1;endFill=0;endSize=12;html=1;rounded=0;" parent="1" source="gIDXt0btsgcUDlHHGtB9-104" edge="1">
          <mxGeometry width="160" relative="1" as="geometry">
            <mxPoint x="644.5" y="95" as="sourcePoint" />
            <mxPoint x="645" y="2600" as="targetPoint" />
          </mxGeometry>
        </mxCell>
        <mxCell id="gIDXt0btsgcUDlHHGtB9-8" value="" style="endArrow=none;dashed=1;endFill=0;endSize=12;html=1;rounded=0;" parent="1" edge="1">
          <mxGeometry width="160" relative="1" as="geometry">
            <mxPoint x="934.5" y="95" as="sourcePoint" />
            <mxPoint x="935" y="2600" as="targetPoint" />
          </mxGeometry>
        </mxCell>
        <mxCell id="gIDXt0btsgcUDlHHGtB9-9" value="&lt;pre&gt;&lt;code class=&quot;!whitespace-pre hljs language-rust&quot;&gt;Requests to view reservations&lt;/code&gt;&lt;/pre&gt;" style="text;html=1;align=center;verticalAlign=middle;resizable=0;points=[];autosize=1;strokeColor=none;fillColor=none;" parent="1" vertex="1">
          <mxGeometry x="110" y="140" width="230" height="50" as="geometry" />
        </mxCell>
        <mxCell id="gIDXt0btsgcUDlHHGtB9-10" value="&lt;pre&gt;&lt;code class=&quot;!whitespace-pre hljs language-rust&quot;&gt;Sends request for &lt;span class=&quot;hljs-title class_&quot;&gt;reservation&lt;/span&gt; data&lt;/code&gt;&lt;/pre&gt;" style="text;html=1;align=center;verticalAlign=middle;resizable=0;points=[];autosize=1;strokeColor=none;fillColor=none;" parent="1" vertex="1">
          <mxGeometry x="370" y="190" width="260" height="50" as="geometry" />
        </mxCell>
        <mxCell id="gIDXt0btsgcUDlHHGtB9-11" value="&lt;pre&gt;&lt;code class=&quot;!whitespace-pre hljs language-rust&quot;&gt;Retrieves reservation data&lt;/code&gt;&lt;/pre&gt;" style="text;html=1;align=center;verticalAlign=middle;resizable=0;points=[];autosize=1;strokeColor=none;fillColor=none;" parent="1" vertex="1">
          <mxGeometry x="690" y="230" width="210" height="50" as="geometry" />
        </mxCell>
        <mxCell id="gIDXt0btsgcUDlHHGtB9-12" value="&lt;pre&gt;&lt;code class=&quot;!whitespace-pre hljs language-rust&quot;&gt;Returns reservation data&lt;/code&gt;&lt;/pre&gt;" style="text;html=1;align=center;verticalAlign=middle;resizable=0;points=[];autosize=1;strokeColor=none;fillColor=none;" parent="1" vertex="1">
          <mxGeometry x="700" y="300" width="190" height="50" as="geometry" />
        </mxCell>
        <mxCell id="gIDXt0btsgcUDlHHGtB9-13" value="&lt;pre&gt;&lt;code class=&quot;!whitespace-pre hljs language-rust&quot;&gt;Sends reservation data&lt;/code&gt;&lt;/pre&gt;" style="text;html=1;align=center;verticalAlign=middle;resizable=0;points=[];autosize=1;strokeColor=none;fillColor=none;" parent="1" vertex="1">
          <mxGeometry x="420" y="340" width="180" height="50" as="geometry" />
        </mxCell>
        <mxCell id="gIDXt0btsgcUDlHHGtB9-14" value="&lt;pre&gt;&lt;code class=&quot;!whitespace-pre hljs language-rust&quot;&gt;Displays reservation data&lt;/code&gt;&lt;/pre&gt;" style="text;html=1;align=center;verticalAlign=middle;resizable=0;points=[];autosize=1;strokeColor=none;fillColor=none;" parent="1" vertex="1">
          <mxGeometry x="125" y="390" width="200" height="50" as="geometry" />
        </mxCell>
        <mxCell id="gIDXt0btsgcUDlHHGtB9-15" value="&lt;pre&gt;&lt;code class=&quot;!whitespace-pre hljs language-rust&quot;&gt;Requests to add a reservation&lt;/code&gt;&lt;/pre&gt;" style="text;html=1;align=center;verticalAlign=middle;resizable=0;points=[];autosize=1;strokeColor=none;fillColor=none;" parent="1" vertex="1">
          <mxGeometry x="110" y="450" width="230" height="50" as="geometry" />
        </mxCell>
        <mxCell id="gIDXt0btsgcUDlHHGtB9-16" value="&lt;pre&gt;&lt;code class=&quot;!whitespace-pre hljs language-rust&quot;&gt;Displays add reservation form&lt;/code&gt;&lt;/pre&gt;" style="text;html=1;align=center;verticalAlign=middle;resizable=0;points=[];autosize=1;strokeColor=none;fillColor=none;" parent="1" vertex="1">
          <mxGeometry x="110" y="508" width="230" height="50" as="geometry" />
        </mxCell>
        <mxCell id="gIDXt0btsgcUDlHHGtB9-17" value="&lt;pre&gt;&lt;code class=&quot;!whitespace-pre hljs language-rust&quot;&gt;Fills in reservation details&lt;/code&gt;&lt;/pre&gt;" style="text;html=1;align=center;verticalAlign=middle;resizable=0;points=[];autosize=1;strokeColor=none;fillColor=none;" parent="1" vertex="1">
          <mxGeometry x="115" y="568" width="220" height="50" as="geometry" />
        </mxCell>
        <mxCell id="gIDXt0btsgcUDlHHGtB9-18" value="&lt;pre&gt;&lt;code class=&quot;!whitespace-pre hljs language-rust&quot;&gt;Sends reservation data to be saved&lt;/code&gt;&lt;/pre&gt;" style="text;html=1;align=center;verticalAlign=middle;resizable=0;points=[];autosize=1;strokeColor=none;fillColor=none;" parent="1" vertex="1">
          <mxGeometry x="370" y="618" width="260" height="50" as="geometry" />
        </mxCell>
        <mxCell id="gIDXt0btsgcUDlHHGtB9-19" value="&lt;pre&gt;&lt;code class=&quot;!whitespace-pre hljs language-rust&quot;&gt;Saves reservation data&lt;/code&gt;&lt;/pre&gt;" style="text;html=1;align=center;verticalAlign=middle;resizable=0;points=[];autosize=1;strokeColor=none;fillColor=none;" parent="1" vertex="1">
          <mxGeometry x="705" y="668" width="180" height="50" as="geometry" />
        </mxCell>
        <mxCell id="gIDXt0btsgcUDlHHGtB9-20" value="&lt;pre&gt;&lt;code class=&quot;!whitespace-pre hljs language-rust&quot;&gt;Returns success/failure message&lt;/code&gt;&lt;/pre&gt;" style="text;html=1;align=center;verticalAlign=middle;resizable=0;points=[];autosize=1;strokeColor=none;fillColor=none;" parent="1" vertex="1">
          <mxGeometry x="675" y="730" width="240" height="50" as="geometry" />
        </mxCell>
        <mxCell id="gIDXt0btsgcUDlHHGtB9-21" value="&lt;pre&gt;&lt;code class=&quot;!whitespace-pre hljs language-rust&quot;&gt;Sends success/failure message&lt;/code&gt;&lt;/pre&gt;" style="text;html=1;align=center;verticalAlign=middle;resizable=0;points=[];autosize=1;strokeColor=none;fillColor=none;" parent="1" vertex="1">
          <mxGeometry x="385" y="780" width="230" height="50" as="geometry" />
        </mxCell>
        <mxCell id="gIDXt0btsgcUDlHHGtB9-22" value="&lt;pre&gt;&lt;code class=&quot;!whitespace-pre hljs language-rust&quot;&gt;Confirms reservation&lt;/code&gt;&lt;/pre&gt;" style="text;html=1;align=center;verticalAlign=middle;resizable=0;points=[];autosize=1;strokeColor=none;fillColor=none;" parent="1" vertex="1">
          <mxGeometry x="145" y="818" width="160" height="50" as="geometry" />
        </mxCell>
        <mxCell id="gIDXt0btsgcUDlHHGtB9-23" value="&lt;pre&gt;&lt;code class=&quot;!whitespace-pre hljs language-rust&quot;&gt;Requests to update reservation&lt;/code&gt;&lt;/pre&gt;" style="text;html=1;align=center;verticalAlign=middle;resizable=0;points=[];autosize=1;strokeColor=none;fillColor=none;" parent="1" vertex="1">
          <mxGeometry x="110" y="880" width="230" height="50" as="geometry" />
        </mxCell>
        <mxCell id="gIDXt0btsgcUDlHHGtB9-24" value="&lt;pre&gt;&lt;code class=&quot;!whitespace-pre hljs language-rust&quot;&gt;Displays update reservation form&lt;/code&gt;&lt;/pre&gt;" style="text;html=1;align=center;verticalAlign=middle;resizable=0;points=[];autosize=1;strokeColor=none;fillColor=none;" parent="1" vertex="1">
          <mxGeometry x="100" y="940" width="250" height="50" as="geometry" />
        </mxCell>
        <mxCell id="gIDXt0btsgcUDlHHGtB9-25" value="&lt;pre&gt;&lt;code class=&quot;!whitespace-pre hljs language-rust&quot;&gt;Updates reservation details&lt;/code&gt;&lt;/pre&gt;" style="text;html=1;align=center;verticalAlign=middle;resizable=0;points=[];autosize=1;strokeColor=none;fillColor=none;" parent="1" vertex="1">
          <mxGeometry x="130" y="1000" width="210" height="50" as="geometry" />
        </mxCell>
        <mxCell id="gIDXt0btsgcUDlHHGtB9-26" value="&lt;pre&gt;&lt;code class=&quot;!whitespace-pre hljs language-rust&quot;&gt;Sends updated reservation data &lt;br&gt;to be saved&lt;/code&gt;&lt;/pre&gt;" style="text;html=1;align=center;verticalAlign=middle;resizable=0;points=[];autosize=1;strokeColor=none;fillColor=none;" parent="1" vertex="1">
          <mxGeometry x="380" y="1050" width="240" height="70" as="geometry" />
        </mxCell>
        <mxCell id="gIDXt0btsgcUDlHHGtB9-27" value="&lt;pre&gt;&lt;code class=&quot;!whitespace-pre hljs language-rust&quot;&gt;Updates reservation data&lt;/code&gt;&lt;/pre&gt;" style="text;html=1;align=center;verticalAlign=middle;resizable=0;points=[];autosize=1;strokeColor=none;fillColor=none;" parent="1" vertex="1">
          <mxGeometry x="705" y="1110" width="190" height="50" as="geometry" />
        </mxCell>
        <mxCell id="gIDXt0btsgcUDlHHGtB9-28" value="&lt;pre&gt;&lt;code class=&quot;!whitespace-pre hljs language-rust&quot;&gt;Returns success/failure message&lt;/code&gt;&lt;/pre&gt;" style="text;html=1;align=center;verticalAlign=middle;resizable=0;points=[];autosize=1;strokeColor=none;fillColor=none;" parent="1" vertex="1">
          <mxGeometry x="675" y="1170" width="240" height="50" as="geometry" />
        </mxCell>
        <mxCell id="gIDXt0btsgcUDlHHGtB9-29" value="&lt;pre&gt;&lt;code class=&quot;!whitespace-pre hljs language-rust&quot;&gt;Sends success/failure message&lt;/code&gt;&lt;/pre&gt;" style="text;html=1;align=center;verticalAlign=middle;resizable=0;points=[];autosize=1;strokeColor=none;fillColor=none;" parent="1" vertex="1">
          <mxGeometry x="385" y="1220" width="230" height="50" as="geometry" />
        </mxCell>
        <mxCell id="gIDXt0btsgcUDlHHGtB9-30" value="&lt;pre&gt;&lt;code class=&quot;!whitespace-pre hljs language-rust&quot;&gt;Confirms reservation update&lt;/code&gt;&lt;/pre&gt;" style="text;html=1;align=center;verticalAlign=middle;resizable=0;points=[];autosize=1;strokeColor=none;fillColor=none;" parent="1" vertex="1">
          <mxGeometry x="130" y="1270" width="210" height="50" as="geometry" />
        </mxCell>
        <mxCell id="gIDXt0btsgcUDlHHGtB9-31" value="&lt;pre&gt;&lt;code class=&quot;!whitespace-pre hljs language-rust&quot;&gt;Requests to cancel reservation&lt;/code&gt;&lt;/pre&gt;" style="text;html=1;align=center;verticalAlign=middle;resizable=0;points=[];autosize=1;strokeColor=none;fillColor=none;" parent="1" vertex="1">
          <mxGeometry x="110" y="1320" width="230" height="50" as="geometry" />
        </mxCell>
        <mxCell id="gIDXt0btsgcUDlHHGtB9-32" value="&lt;pre&gt;&lt;code class=&quot;!whitespace-pre hljs language-rust&quot;&gt;Displays cancel reservation form&lt;/code&gt;&lt;/pre&gt;" style="text;html=1;align=center;verticalAlign=middle;resizable=0;points=[];autosize=1;strokeColor=none;fillColor=none;" parent="1" vertex="1">
          <mxGeometry x="100" y="1370" width="250" height="50" as="geometry" />
        </mxCell>
        <mxCell id="gIDXt0btsgcUDlHHGtB9-33" value="&lt;pre&gt;&lt;code class=&quot;!whitespace-pre hljs language-rust&quot;&gt;Cancels reservation&lt;/code&gt;&lt;/pre&gt;" style="text;html=1;align=center;verticalAlign=middle;resizable=0;points=[];autosize=1;strokeColor=none;fillColor=none;" parent="1" vertex="1">
          <mxGeometry x="145" y="1428" width="160" height="50" as="geometry" />
        </mxCell>
        <mxCell id="gIDXt0btsgcUDlHHGtB9-34" value="&lt;pre&gt;&lt;code class=&quot;!whitespace-pre hljs language-rust&quot;&gt;Sends request to delete &lt;br&gt;reservation data&lt;/code&gt;&lt;/pre&gt;" style="text;html=1;align=center;verticalAlign=middle;resizable=0;points=[];autosize=1;strokeColor=none;fillColor=none;" parent="1" vertex="1">
          <mxGeometry x="405" y="1470" width="190" height="70" as="geometry" />
        </mxCell>
        <mxCell id="gIDXt0btsgcUDlHHGtB9-35" value="&lt;pre&gt;&lt;code class=&quot;!whitespace-pre hljs language-rust&quot;&gt;Deletes reservation data&lt;/code&gt;&lt;/pre&gt;" style="text;html=1;align=center;verticalAlign=middle;resizable=0;points=[];autosize=1;strokeColor=none;fillColor=none;" parent="1" vertex="1">
          <mxGeometry x="700" y="1530" width="190" height="50" as="geometry" />
        </mxCell>
        <mxCell id="gIDXt0btsgcUDlHHGtB9-36" value="&lt;pre&gt;&lt;code class=&quot;!whitespace-pre hljs language-rust&quot;&gt;Returns success/failure message&lt;/code&gt;&lt;/pre&gt;" style="text;html=1;align=center;verticalAlign=middle;resizable=0;points=[];autosize=1;strokeColor=none;fillColor=none;" parent="1" vertex="1">
          <mxGeometry x="675" y="1580" width="240" height="50" as="geometry" />
        </mxCell>
        <mxCell id="gIDXt0btsgcUDlHHGtB9-37" value="&lt;pre&gt;&lt;code class=&quot;!whitespace-pre hljs language-rust&quot;&gt;Sends success/failure message&lt;/code&gt;&lt;/pre&gt;" style="text;html=1;align=center;verticalAlign=middle;resizable=0;points=[];autosize=1;strokeColor=none;fillColor=none;" parent="1" vertex="1">
          <mxGeometry x="385" y="1618" width="230" height="50" as="geometry" />
        </mxCell>
        <mxCell id="gIDXt0btsgcUDlHHGtB9-38" value="&lt;pre&gt;&lt;code class=&quot;!whitespace-pre hljs language-rust&quot;&gt;Confirms reservation cancellation&lt;/code&gt;&lt;/pre&gt;" style="text;html=1;align=center;verticalAlign=middle;resizable=0;points=[];autosize=1;strokeColor=none;fillColor=none;" parent="1" vertex="1">
          <mxGeometry x="100" y="1668" width="250" height="50" as="geometry" />
        </mxCell>
        <mxCell id="gIDXt0btsgcUDlHHGtB9-39" value="&lt;pre&gt;&lt;code class=&quot;!whitespace-pre hljs language-rust&quot;&gt;Requests to mark reservation &lt;br&gt;as arrived&lt;/code&gt;&lt;/pre&gt;" style="text;html=1;align=center;verticalAlign=middle;resizable=0;points=[];autosize=1;strokeColor=none;fillColor=none;" parent="1" vertex="1">
          <mxGeometry x="110" y="1718" width="230" height="70" as="geometry" />
        </mxCell>
        <mxCell id="gIDXt0btsgcUDlHHGtB9-40" value="&lt;pre&gt;&lt;code class=&quot;!whitespace-pre hljs language-rust&quot;&gt;Displays mark arrived form&lt;/code&gt;&lt;/pre&gt;" style="text;html=1;align=center;verticalAlign=middle;resizable=0;points=[];autosize=1;strokeColor=none;fillColor=none;" parent="1" vertex="1">
          <mxGeometry x="125" y="1788" width="210" height="50" as="geometry" />
        </mxCell>
        <mxCell id="gIDXt0btsgcUDlHHGtB9-41" value="&lt;pre&gt;&lt;code class=&quot;!whitespace-pre hljs language-rust&quot;&gt;Marks reservation as arrived&lt;/code&gt;&lt;/pre&gt;" style="text;html=1;align=center;verticalAlign=middle;resizable=0;points=[];autosize=1;strokeColor=none;fillColor=none;" parent="1" vertex="1">
          <mxGeometry x="115" y="1848" width="220" height="50" as="geometry" />
        </mxCell>
        <mxCell id="gIDXt0btsgcUDlHHGtB9-42" value="&lt;pre&gt;&lt;code class=&quot;!whitespace-pre hljs language-rust&quot;&gt;Sends request to update reservation &lt;br&gt;status to arrived&lt;/code&gt;&lt;/pre&gt;" style="text;html=1;align=center;verticalAlign=middle;resizable=0;points=[];autosize=1;strokeColor=none;fillColor=none;" parent="1" vertex="1">
          <mxGeometry x="370" y="1890" width="280" height="70" as="geometry" />
        </mxCell>
        <mxCell id="gIDXt0btsgcUDlHHGtB9-43" value="&lt;pre&gt;&lt;code class=&quot;!whitespace-pre hljs language-rust&quot;&gt;Updates reservation status to arrived&lt;/code&gt;&lt;/pre&gt;" style="text;html=1;align=center;verticalAlign=middle;resizable=0;points=[];autosize=1;strokeColor=none;fillColor=none;" parent="1" vertex="1">
          <mxGeometry x="650" y="1950" width="280" height="50" as="geometry" />
        </mxCell>
        <mxCell id="gIDXt0btsgcUDlHHGtB9-44" value="&lt;pre&gt;&lt;code class=&quot;!whitespace-pre hljs language-rust&quot;&gt;Returns success/failure message&lt;/code&gt;&lt;/pre&gt;" style="text;html=1;align=center;verticalAlign=middle;resizable=0;points=[];autosize=1;strokeColor=none;fillColor=none;" parent="1" vertex="1">
          <mxGeometry x="670" y="2000" width="240" height="50" as="geometry" />
        </mxCell>
        <mxCell id="gIDXt0btsgcUDlHHGtB9-45" value="&lt;pre&gt;&lt;code class=&quot;!whitespace-pre hljs language-rust&quot;&gt;Sends success/failure message&lt;/code&gt;&lt;/pre&gt;" style="text;html=1;align=center;verticalAlign=middle;resizable=0;points=[];autosize=1;strokeColor=none;fillColor=none;" parent="1" vertex="1">
          <mxGeometry x="385" y="2050" width="230" height="50" as="geometry" />
        </mxCell>
        <mxCell id="gIDXt0btsgcUDlHHGtB9-46" value="&lt;pre&gt;&lt;code class=&quot;!whitespace-pre hljs language-rust&quot;&gt;Confirms reservation arrival&lt;/code&gt;&lt;/pre&gt;" style="text;html=1;align=center;verticalAlign=middle;resizable=0;points=[];autosize=1;strokeColor=none;fillColor=none;" parent="1" vertex="1">
          <mxGeometry x="115" y="2090" width="220" height="50" as="geometry" />
        </mxCell>
        <mxCell id="gIDXt0btsgcUDlHHGtB9-47" value="&lt;pre&gt;&lt;code class=&quot;!whitespace-pre hljs language-rust&quot;&gt;Requests to mark reservation &lt;br&gt;as completed&lt;/code&gt;&lt;/pre&gt;" style="text;html=1;align=center;verticalAlign=middle;resizable=0;points=[];autosize=1;strokeColor=none;fillColor=none;" parent="1" vertex="1">
          <mxGeometry x="110" y="2140" width="230" height="70" as="geometry" />
        </mxCell>
        <mxCell id="gIDXt0btsgcUDlHHGtB9-48" value="&lt;pre&gt;&lt;code class=&quot;!whitespace-pre hljs language-rust&quot;&gt;Displays mark completed form&lt;/code&gt;&lt;/pre&gt;" style="text;html=1;align=center;verticalAlign=middle;resizable=0;points=[];autosize=1;strokeColor=none;fillColor=none;" parent="1" vertex="1">
          <mxGeometry x="115" y="2220" width="220" height="50" as="geometry" />
        </mxCell>
        <mxCell id="gIDXt0btsgcUDlHHGtB9-49" value="&lt;pre&gt;&lt;code class=&quot;!whitespace-pre hljs language-rust&quot;&gt;Marks reservation as completed&lt;/code&gt;&lt;/pre&gt;" style="text;html=1;align=center;verticalAlign=middle;resizable=0;points=[];autosize=1;strokeColor=none;fillColor=none;" parent="1" vertex="1">
          <mxGeometry x="110" y="2278" width="230" height="50" as="geometry" />
        </mxCell>
        <mxCell id="gIDXt0btsgcUDlHHGtB9-50" value="&lt;pre&gt;&lt;code class=&quot;!whitespace-pre hljs language-rust&quot;&gt;Sends request to update reservation &lt;br&gt;status to completed&lt;/code&gt;&lt;/pre&gt;" style="text;html=1;align=center;verticalAlign=middle;resizable=0;points=[];autosize=1;strokeColor=none;fillColor=none;" parent="1" vertex="1">
          <mxGeometry x="360" y="2320" width="280" height="70" as="geometry" />
        </mxCell>
        <mxCell id="gIDXt0btsgcUDlHHGtB9-51" value="&lt;pre&gt;&lt;code class=&quot;!whitespace-pre hljs language-rust&quot;&gt;Updates reservation status to completed&lt;/code&gt;&lt;/pre&gt;" style="text;html=1;align=center;verticalAlign=middle;resizable=0;points=[];autosize=1;strokeColor=none;fillColor=none;" parent="1" vertex="1">
          <mxGeometry x="640" y="2370" width="300" height="50" as="geometry" />
        </mxCell>
        <mxCell id="gIDXt0btsgcUDlHHGtB9-52" value="&lt;pre&gt;&lt;code class=&quot;!whitespace-pre hljs language-rust&quot;&gt;Returns success/failure message&lt;/code&gt;&lt;/pre&gt;" style="text;html=1;align=center;verticalAlign=middle;resizable=0;points=[];autosize=1;strokeColor=none;fillColor=none;" parent="1" vertex="1">
          <mxGeometry x="670" y="2420" width="240" height="50" as="geometry" />
        </mxCell>
        <mxCell id="gIDXt0btsgcUDlHHGtB9-53" value="&lt;pre&gt;&lt;code class=&quot;!whitespace-pre hljs language-rust&quot;&gt;Sends success/failure message&lt;/code&gt;&lt;/pre&gt;" style="text;html=1;align=center;verticalAlign=middle;resizable=0;points=[];autosize=1;strokeColor=none;fillColor=none;" parent="1" vertex="1">
          <mxGeometry x="385" y="2470" width="230" height="50" as="geometry" />
        </mxCell>
        <mxCell id="gIDXt0btsgcUDlHHGtB9-54" value="&lt;pre&gt;&lt;code class=&quot;!whitespace-pre hljs language-rust&quot;&gt;Confirms reservation completion&lt;/code&gt;&lt;/pre&gt;" style="text;html=1;align=center;verticalAlign=middle;resizable=0;points=[];autosize=1;strokeColor=none;fillColor=none;" parent="1" vertex="1">
          <mxGeometry x="105" y="2520" width="240" height="50" as="geometry" />
        </mxCell>
        <mxCell id="gIDXt0btsgcUDlHHGtB9-56" value="" style="endArrow=block;endFill=0;endSize=12;html=1;rounded=0;" parent="1" edge="1">
          <mxGeometry width="160" relative="1" as="geometry">
            <mxPoint x="110" y="180" as="sourcePoint" />
            <mxPoint x="350" y="180" as="targetPoint" />
          </mxGeometry>
        </mxCell>
        <mxCell id="gIDXt0btsgcUDlHHGtB9-57" value="" style="endArrow=block;endFill=0;endSize=12;html=1;rounded=0;dashed=1;" parent="1" edge="1">
          <mxGeometry width="160" relative="1" as="geometry">
            <mxPoint x="350" y="430" as="sourcePoint" />
            <mxPoint x="110" y="430" as="targetPoint" />
          </mxGeometry>
        </mxCell>
        <mxCell id="gIDXt0btsgcUDlHHGtB9-58" value="" style="endArrow=block;endFill=0;endSize=12;html=1;rounded=0;" parent="1" edge="1">
          <mxGeometry width="160" relative="1" as="geometry">
            <mxPoint x="110" y="490" as="sourcePoint" />
            <mxPoint x="350" y="490" as="targetPoint" />
          </mxGeometry>
        </mxCell>
        <mxCell id="gIDXt0btsgcUDlHHGtB9-59" value="" style="endArrow=block;endFill=0;endSize=12;html=1;rounded=0;dashed=1;" parent="1" edge="1">
          <mxGeometry width="160" relative="1" as="geometry">
            <mxPoint x="350" y="550" as="sourcePoint" />
            <mxPoint x="110" y="550" as="targetPoint" />
          </mxGeometry>
        </mxCell>
        <mxCell id="gIDXt0btsgcUDlHHGtB9-60" value="" style="endArrow=block;endFill=0;endSize=12;html=1;rounded=0;" parent="1" edge="1">
          <mxGeometry width="160" relative="1" as="geometry">
            <mxPoint x="110" y="610" as="sourcePoint" />
            <mxPoint x="350" y="610" as="targetPoint" />
          </mxGeometry>
        </mxCell>
        <mxCell id="gIDXt0btsgcUDlHHGtB9-61" value="" style="endArrow=block;endFill=0;endSize=12;html=1;rounded=0;" parent="1" edge="1">
          <mxGeometry width="160" relative="1" as="geometry">
            <mxPoint x="350" y="860" as="sourcePoint" />
            <mxPoint x="110" y="860" as="targetPoint" />
          </mxGeometry>
        </mxCell>
        <mxCell id="gIDXt0btsgcUDlHHGtB9-62" value="" style="endArrow=block;endFill=0;endSize=12;html=1;rounded=0;" parent="1" edge="1">
          <mxGeometry width="160" relative="1" as="geometry">
            <mxPoint x="110" y="920" as="sourcePoint" />
            <mxPoint x="350" y="920" as="targetPoint" />
          </mxGeometry>
        </mxCell>
        <mxCell id="gIDXt0btsgcUDlHHGtB9-63" value="" style="endArrow=block;endFill=0;endSize=12;html=1;rounded=0;" parent="1" edge="1">
          <mxGeometry width="160" relative="1" as="geometry">
            <mxPoint x="350" y="980" as="sourcePoint" />
            <mxPoint x="110" y="980" as="targetPoint" />
          </mxGeometry>
        </mxCell>
        <mxCell id="gIDXt0btsgcUDlHHGtB9-64" value="" style="endArrow=block;endFill=0;endSize=12;html=1;rounded=0;" parent="1" edge="1">
          <mxGeometry width="160" relative="1" as="geometry">
            <mxPoint x="110" y="1040" as="sourcePoint" />
            <mxPoint x="350" y="1040" as="targetPoint" />
          </mxGeometry>
        </mxCell>
        <mxCell id="gIDXt0btsgcUDlHHGtB9-65" value="" style="endArrow=block;endFill=0;endSize=12;html=1;rounded=0;" parent="1" edge="1">
          <mxGeometry width="160" relative="1" as="geometry">
            <mxPoint x="350" y="1310" as="sourcePoint" />
            <mxPoint x="110" y="1310" as="targetPoint" />
          </mxGeometry>
        </mxCell>
        <mxCell id="gIDXt0btsgcUDlHHGtB9-66" value="" style="endArrow=block;endFill=0;endSize=12;html=1;rounded=0;" parent="1" edge="1">
          <mxGeometry width="160" relative="1" as="geometry">
            <mxPoint x="110" y="1360" as="sourcePoint" />
            <mxPoint x="350" y="1360" as="targetPoint" />
          </mxGeometry>
        </mxCell>
        <mxCell id="gIDXt0btsgcUDlHHGtB9-67" value="" style="endArrow=block;endFill=0;endSize=12;html=1;rounded=0;" parent="1" edge="1">
          <mxGeometry width="160" relative="1" as="geometry">
            <mxPoint x="350" y="1410" as="sourcePoint" />
            <mxPoint x="110" y="1410" as="targetPoint" />
          </mxGeometry>
        </mxCell>
        <mxCell id="gIDXt0btsgcUDlHHGtB9-68" value="" style="endArrow=block;endFill=0;endSize=12;html=1;rounded=0;" parent="1" edge="1">
          <mxGeometry width="160" relative="1" as="geometry">
            <mxPoint x="110" y="1470" as="sourcePoint" />
            <mxPoint x="350" y="1470" as="targetPoint" />
          </mxGeometry>
        </mxCell>
        <mxCell id="gIDXt0btsgcUDlHHGtB9-69" value="" style="endArrow=block;endFill=0;endSize=12;html=1;rounded=0;" parent="1" edge="1">
          <mxGeometry width="160" relative="1" as="geometry">
            <mxPoint x="350" y="1710" as="sourcePoint" />
            <mxPoint x="110" y="1710" as="targetPoint" />
          </mxGeometry>
        </mxCell>
        <mxCell id="gIDXt0btsgcUDlHHGtB9-70" value="" style="endArrow=block;endFill=0;endSize=12;html=1;rounded=0;" parent="1" edge="1">
          <mxGeometry width="160" relative="1" as="geometry">
            <mxPoint x="110" y="1770" as="sourcePoint" />
            <mxPoint x="350" y="1770" as="targetPoint" />
          </mxGeometry>
        </mxCell>
        <mxCell id="gIDXt0btsgcUDlHHGtB9-71" value="" style="endArrow=block;endFill=0;endSize=12;html=1;rounded=0;" parent="1" edge="1">
          <mxGeometry width="160" relative="1" as="geometry">
            <mxPoint x="350" y="1830" as="sourcePoint" />
            <mxPoint x="110" y="1830" as="targetPoint" />
          </mxGeometry>
        </mxCell>
        <mxCell id="gIDXt0btsgcUDlHHGtB9-72" value="" style="endArrow=block;endFill=0;endSize=12;html=1;rounded=0;" parent="1" edge="1">
          <mxGeometry width="160" relative="1" as="geometry">
            <mxPoint x="110" y="1889" as="sourcePoint" />
            <mxPoint x="350" y="1889" as="targetPoint" />
          </mxGeometry>
        </mxCell>
        <mxCell id="gIDXt0btsgcUDlHHGtB9-73" value="" style="endArrow=block;endFill=0;endSize=12;html=1;rounded=0;" parent="1" edge="1">
          <mxGeometry width="160" relative="1" as="geometry">
            <mxPoint x="350" y="2130" as="sourcePoint" />
            <mxPoint x="110" y="2130" as="targetPoint" />
          </mxGeometry>
        </mxCell>
        <mxCell id="gIDXt0btsgcUDlHHGtB9-74" value="" style="endArrow=block;endFill=0;endSize=12;html=1;rounded=0;" parent="1" edge="1">
          <mxGeometry width="160" relative="1" as="geometry">
            <mxPoint x="110" y="2190" as="sourcePoint" />
            <mxPoint x="350" y="2190" as="targetPoint" />
          </mxGeometry>
        </mxCell>
        <mxCell id="gIDXt0btsgcUDlHHGtB9-75" value="" style="endArrow=block;endFill=0;endSize=12;html=1;rounded=0;" parent="1" edge="1">
          <mxGeometry width="160" relative="1" as="geometry">
            <mxPoint x="350" y="2260" as="sourcePoint" />
            <mxPoint x="110" y="2260" as="targetPoint" />
          </mxGeometry>
        </mxCell>
        <mxCell id="gIDXt0btsgcUDlHHGtB9-76" value="" style="endArrow=block;endFill=0;endSize=12;html=1;rounded=0;" parent="1" edge="1">
          <mxGeometry width="160" relative="1" as="geometry">
            <mxPoint x="110" y="2320" as="sourcePoint" />
            <mxPoint x="350" y="2320" as="targetPoint" />
          </mxGeometry>
        </mxCell>
        <mxCell id="gIDXt0btsgcUDlHHGtB9-77" value="" style="endArrow=block;endFill=0;endSize=12;html=1;rounded=0;dashed=1;" parent="1" edge="1">
          <mxGeometry width="160" relative="1" as="geometry">
            <mxPoint x="350" y="2560" as="sourcePoint" />
            <mxPoint x="110" y="2560" as="targetPoint" />
          </mxGeometry>
        </mxCell>
        <mxCell id="gIDXt0btsgcUDlHHGtB9-78" value="" style="endArrow=block;endFill=0;endSize=12;html=1;rounded=0;" parent="1" edge="1">
          <mxGeometry width="160" relative="1" as="geometry">
            <mxPoint x="360" y="230" as="sourcePoint" />
            <mxPoint x="640" y="230" as="targetPoint" />
          </mxGeometry>
        </mxCell>
        <mxCell id="gIDXt0btsgcUDlHHGtB9-79" value="" style="endArrow=block;endFill=0;endSize=12;html=1;rounded=0;dashed=1;" parent="1" edge="1">
          <mxGeometry width="160" relative="1" as="geometry">
            <mxPoint x="640" y="380" as="sourcePoint" />
            <mxPoint x="360" y="380" as="targetPoint" />
          </mxGeometry>
        </mxCell>
        <mxCell id="gIDXt0btsgcUDlHHGtB9-80" value="" style="endArrow=block;endFill=0;endSize=12;html=1;rounded=0;" parent="1" edge="1">
          <mxGeometry width="160" relative="1" as="geometry">
            <mxPoint x="360" y="660" as="sourcePoint" />
            <mxPoint x="640" y="660" as="targetPoint" />
          </mxGeometry>
        </mxCell>
        <mxCell id="gIDXt0btsgcUDlHHGtB9-81" value="" style="endArrow=block;endFill=0;endSize=12;html=1;rounded=0;dashed=1;" parent="1" edge="1">
          <mxGeometry width="160" relative="1" as="geometry">
            <mxPoint x="640" y="818" as="sourcePoint" />
            <mxPoint x="360" y="818" as="targetPoint" />
          </mxGeometry>
        </mxCell>
        <mxCell id="gIDXt0btsgcUDlHHGtB9-82" value="" style="endArrow=block;endFill=0;endSize=12;html=1;rounded=0;" parent="1" edge="1">
          <mxGeometry width="160" relative="1" as="geometry">
            <mxPoint x="360" y="1100" as="sourcePoint" />
            <mxPoint x="640" y="1100" as="targetPoint" />
          </mxGeometry>
        </mxCell>
        <mxCell id="gIDXt0btsgcUDlHHGtB9-83" value="" style="endArrow=block;endFill=0;endSize=12;html=1;rounded=0;dashed=1;" parent="1" edge="1">
          <mxGeometry width="160" relative="1" as="geometry">
            <mxPoint x="640" y="1260" as="sourcePoint" />
            <mxPoint x="360" y="1260" as="targetPoint" />
          </mxGeometry>
        </mxCell>
        <mxCell id="gIDXt0btsgcUDlHHGtB9-84" value="" style="endArrow=block;endFill=0;endSize=12;html=1;rounded=0;" parent="1" edge="1">
          <mxGeometry width="160" relative="1" as="geometry">
            <mxPoint x="360" y="1520" as="sourcePoint" />
            <mxPoint x="640" y="1520" as="targetPoint" />
          </mxGeometry>
        </mxCell>
        <mxCell id="gIDXt0btsgcUDlHHGtB9-85" value="" style="endArrow=block;endFill=0;endSize=12;html=1;rounded=0;dashed=1;" parent="1" edge="1">
          <mxGeometry width="160" relative="1" as="geometry">
            <mxPoint x="640" y="1660" as="sourcePoint" />
            <mxPoint x="360" y="1660" as="targetPoint" />
          </mxGeometry>
        </mxCell>
        <mxCell id="gIDXt0btsgcUDlHHGtB9-86" value="" style="endArrow=block;endFill=0;endSize=12;html=1;rounded=0;" parent="1" edge="1">
          <mxGeometry width="160" relative="1" as="geometry">
            <mxPoint x="360" y="1940" as="sourcePoint" />
            <mxPoint x="640" y="1940" as="targetPoint" />
          </mxGeometry>
        </mxCell>
        <mxCell id="gIDXt0btsgcUDlHHGtB9-87" value="" style="endArrow=block;endFill=0;endSize=12;html=1;rounded=0;dashed=1;" parent="1" edge="1">
          <mxGeometry width="160" relative="1" as="geometry">
            <mxPoint x="640" y="2090" as="sourcePoint" />
            <mxPoint x="360" y="2090" as="targetPoint" />
          </mxGeometry>
        </mxCell>
        <mxCell id="gIDXt0btsgcUDlHHGtB9-88" value="" style="endArrow=block;endFill=0;endSize=12;html=1;rounded=0;" parent="1" edge="1">
          <mxGeometry width="160" relative="1" as="geometry">
            <mxPoint x="360" y="2370" as="sourcePoint" />
            <mxPoint x="640" y="2370" as="targetPoint" />
          </mxGeometry>
        </mxCell>
        <mxCell id="gIDXt0btsgcUDlHHGtB9-89" value="" style="endArrow=block;endFill=0;endSize=12;html=1;rounded=0;dashed=1;" parent="1" edge="1">
          <mxGeometry width="160" relative="1" as="geometry">
            <mxPoint x="640" y="2510" as="sourcePoint" />
            <mxPoint x="360" y="2510" as="targetPoint" />
          </mxGeometry>
        </mxCell>
        <mxCell id="gIDXt0btsgcUDlHHGtB9-90" value="" style="endArrow=block;endFill=0;endSize=12;html=1;rounded=0;" parent="1" edge="1">
          <mxGeometry width="160" relative="1" as="geometry">
            <mxPoint x="650" y="270" as="sourcePoint" />
            <mxPoint x="930" y="270" as="targetPoint" />
          </mxGeometry>
        </mxCell>
        <mxCell id="gIDXt0btsgcUDlHHGtB9-91" value="" style="endArrow=block;endFill=0;endSize=12;html=1;rounded=0;dashed=1;" parent="1" edge="1">
          <mxGeometry width="160" relative="1" as="geometry">
            <mxPoint x="930" y="340" as="sourcePoint" />
            <mxPoint x="650" y="340" as="targetPoint" />
          </mxGeometry>
        </mxCell>
        <mxCell id="gIDXt0btsgcUDlHHGtB9-92" value="" style="endArrow=block;endFill=0;endSize=12;html=1;rounded=0;" parent="1" edge="1">
          <mxGeometry width="160" relative="1" as="geometry">
            <mxPoint x="650" y="710" as="sourcePoint" />
            <mxPoint x="930" y="710" as="targetPoint" />
          </mxGeometry>
        </mxCell>
        <mxCell id="gIDXt0btsgcUDlHHGtB9-93" value="" style="endArrow=block;endFill=0;endSize=12;html=1;rounded=0;dashed=1;" parent="1" edge="1">
          <mxGeometry width="160" relative="1" as="geometry">
            <mxPoint x="930" y="770" as="sourcePoint" />
            <mxPoint x="650" y="770" as="targetPoint" />
          </mxGeometry>
        </mxCell>
        <mxCell id="gIDXt0btsgcUDlHHGtB9-94" value="" style="endArrow=block;endFill=0;endSize=12;html=1;rounded=0;" parent="1" edge="1">
          <mxGeometry width="160" relative="1" as="geometry">
            <mxPoint x="650" y="1150" as="sourcePoint" />
            <mxPoint x="930" y="1150" as="targetPoint" />
          </mxGeometry>
        </mxCell>
        <mxCell id="gIDXt0btsgcUDlHHGtB9-95" value="" style="endArrow=block;endFill=0;endSize=12;html=1;rounded=0;dashed=1;" parent="1" edge="1">
          <mxGeometry width="160" relative="1" as="geometry">
            <mxPoint x="930" y="1210" as="sourcePoint" />
            <mxPoint x="650" y="1210" as="targetPoint" />
          </mxGeometry>
        </mxCell>
        <mxCell id="gIDXt0btsgcUDlHHGtB9-96" value="" style="endArrow=block;endFill=0;endSize=12;html=1;rounded=0;" parent="1" edge="1">
          <mxGeometry width="160" relative="1" as="geometry">
            <mxPoint x="650" y="1570" as="sourcePoint" />
            <mxPoint x="930" y="1570" as="targetPoint" />
          </mxGeometry>
        </mxCell>
        <mxCell id="gIDXt0btsgcUDlHHGtB9-97" value="" style="endArrow=block;endFill=0;endSize=12;html=1;rounded=0;dashed=1;" parent="1" edge="1">
          <mxGeometry width="160" relative="1" as="geometry">
            <mxPoint x="930" y="1618" as="sourcePoint" />
            <mxPoint x="650" y="1618" as="targetPoint" />
          </mxGeometry>
        </mxCell>
        <mxCell id="gIDXt0btsgcUDlHHGtB9-98" value="" style="endArrow=block;endFill=0;endSize=12;html=1;rounded=0;" parent="1" edge="1">
          <mxGeometry width="160" relative="1" as="geometry">
            <mxPoint x="650" y="1990" as="sourcePoint" />
            <mxPoint x="930" y="1990" as="targetPoint" />
          </mxGeometry>
        </mxCell>
        <mxCell id="gIDXt0btsgcUDlHHGtB9-99" value="" style="endArrow=block;endFill=0;endSize=12;html=1;rounded=0;dashed=1;" parent="1" edge="1">
          <mxGeometry width="160" relative="1" as="geometry">
            <mxPoint x="930" y="2040" as="sourcePoint" />
            <mxPoint x="650" y="2040" as="targetPoint" />
          </mxGeometry>
        </mxCell>
        <mxCell id="gIDXt0btsgcUDlHHGtB9-100" value="" style="endArrow=block;endFill=0;endSize=12;html=1;rounded=0;" parent="1" edge="1">
          <mxGeometry width="160" relative="1" as="geometry">
            <mxPoint x="650" y="2410" as="sourcePoint" />
            <mxPoint x="930" y="2410" as="targetPoint" />
          </mxGeometry>
        </mxCell>
        <mxCell id="gIDXt0btsgcUDlHHGtB9-101" value="" style="endArrow=block;endFill=0;endSize=12;html=1;rounded=0;dashed=1;" parent="1" edge="1">
          <mxGeometry width="160" relative="1" as="geometry">
            <mxPoint x="930" y="2460" as="sourcePoint" />
            <mxPoint x="650" y="2460" as="targetPoint" />
          </mxGeometry>
        </mxCell>
        <mxCell id="gIDXt0btsgcUDlHHGtB9-103" value="" style="endArrow=block;dashed=1;endFill=0;endSize=12;html=1;rounded=0;" parent="1" target="gIDXt0btsgcUDlHHGtB9-102" edge="1">
          <mxGeometry width="160" relative="1" as="geometry">
            <mxPoint x="354.5" y="95" as="sourcePoint" />
            <mxPoint x="355" y="2600" as="targetPoint" />
          </mxGeometry>
        </mxCell>
        <mxCell id="gIDXt0btsgcUDlHHGtB9-102" value="" style="html=1;points=[];perimeter=orthogonalPerimeter;outlineConnect=0;targetShapes=umlLifeline;portConstraint=eastwest;newEdgeStyle={&quot;edgeStyle&quot;:&quot;elbowEdgeStyle&quot;,&quot;elbow&quot;:&quot;vertical&quot;,&quot;curved&quot;:0,&quot;rounded&quot;:0};" parent="1" vertex="1">
          <mxGeometry x="350" y="160" width="10" height="2410" as="geometry" />
        </mxCell>
        <mxCell id="gIDXt0btsgcUDlHHGtB9-105" value="" style="endArrow=block;dashed=1;endFill=0;endSize=12;html=1;rounded=0;" parent="1" target="gIDXt0btsgcUDlHHGtB9-104" edge="1">
          <mxGeometry width="160" relative="1" as="geometry">
            <mxPoint x="644.5" y="95" as="sourcePoint" />
            <mxPoint x="645" y="2600" as="targetPoint" />
          </mxGeometry>
        </mxCell>
        <mxCell id="gIDXt0btsgcUDlHHGtB9-104" value="" style="html=1;points=[];perimeter=orthogonalPerimeter;outlineConnect=0;targetShapes=umlLifeline;portConstraint=eastwest;newEdgeStyle={&quot;edgeStyle&quot;:&quot;elbowEdgeStyle&quot;,&quot;elbow&quot;:&quot;vertical&quot;,&quot;curved&quot;:0,&quot;rounded&quot;:0};" parent="1" vertex="1">
          <mxGeometry x="640" y="210" width="10" height="2310" as="geometry" />
        </mxCell>
        <mxCell id="gIDXt0btsgcUDlHHGtB9-106" value="" style="html=1;points=[];perimeter=orthogonalPerimeter;outlineConnect=0;targetShapes=umlLifeline;portConstraint=eastwest;newEdgeStyle={&quot;edgeStyle&quot;:&quot;elbowEdgeStyle&quot;,&quot;elbow&quot;:&quot;vertical&quot;,&quot;curved&quot;:0,&quot;rounded&quot;:0};" parent="1" vertex="1">
          <mxGeometry x="930" y="240" width="10" height="2240" as="geometry" />
        </mxCell>
      </root>
    </mxGraphModel>
  </diagram>
</mxfile>
